# xmcd CD database file
#
# Track frame offsets:
#	150
#	26959
#	40126
#	54912
#	67133
#	80961
#	93637
#	107651
#	121696
#	133583
#	144153
#	158568
#	171951
#	180543
#	193715
#	207114
#	220881
#	234170
#	246192
#	257279
#
# Disc length: 3589 seconds
#
# Revision: 0
# Processed by: cddbd v1.5.2PL0 Copyright (c) Steve Scherf et al.
# Submitted via: CDex 1.70beta2
#
DISCID=140e0314
DTITLE=Mahalia Jackson - 20 Légendes du Blues CD 06
DYEAR=2008
DGENRE=Blues
TTITLE0=In The Upper Room
TTITLE1=Said He Would
TTITLE2=I Bow On My Kness
TTITLE3=Walk With Me
TTITLE4=Jesus Is With Me
TTITLE5=I'm Glad Salvation Is Free
TTITLE6=Go Tell It On The Mountain
TTITLE7=It's Real
TTITLE8=Get Away Jordan
TTITLE9=Run All The Way
TTITLE10=Hands Of God
TTITLE11=Silent Night, Holy Night
TTITLE12=Didn't It Rain
TTITLE13=What Then
TTITLE14=It Is No Secret
TTITLE15=How I Got Over It
TTITLE16=He's My Light
TTITLE17=Nobody Knows The Trouble l've Seen
TTITLE18=Beautiful Tomorrow
TTITLE19=Walking To Jerusalem
EXTD=YEAR: 2008
EXTT0=
EXTT1=
EXTT2=
EXTT3=
EXTT4=
EXTT5=
EXTT6=
EXTT7=
EXTT8=
EXTT9=
EXTT10=
EXTT11=
EXTT12=
EXTT13=
EXTT14=
EXTT15=
EXTT16=
EXTT17=
EXTT18=
EXTT19=
PLAYORDER=
